<?xml version="1.0" encoding="utf-8"?>
<!DOCTYPE svg PUBLIC "-//W3C//DTD SVG 1.1//EN" "http://www.w3.org/Graphics/SVG/1.1/DTD/svg11.dtd">
<svg version="1.1" id="Layer_1" xmlns="http://www.w3.org/2000/svg" xmlns:xlink="http://www.w3.org/1999/xlink" x="0px" y="0px"
	 viewBox="0 0 243.5 62.6" enable-background="new 0 0 243.5 62.6" xml:space="preserve">
<g>
	<g>
		<linearGradient id="SVGID_1_" gradientUnits="userSpaceOnUse" x1="0" y1="33.6878" x2="59.6285" y2="33.6878">
			<stop  offset="0" style="stop-color:#6DA5BA;stop-opacity:0.5"/>
			<stop  offset="1" style="stop-color:#6DA5BA"/>
		</linearGradient>
		<path fill="url(#SVGID_1_)" d="M59.6,29.2c-2,1.3-10.7,6.3-29.4,6.3c-18.6,0-28.1-5-30.2-6.3c0,0.2,0,0.4,0,0.6
			c0,0.8,0,1.7,0.1,2.5c4,2.1,13.5,5.8,30.1,5.8c16.3,0,25.4-3.7,29.3-5.8c0.1-0.9,0.1-1.7,0.1-2.6C59.6,29.6,59.6,29.4,59.6,29.2
			L59.6,29.2z M59.6,29.2"/>
		<linearGradient id="SVGID_2_" gradientUnits="userSpaceOnUse" x1="1.1193" y1="42.6967" x2="58.4357" y2="42.6967">
			<stop  offset="0" style="stop-color:#6DA5BA;stop-opacity:0.5"/>
			<stop  offset="1" style="stop-color:#6DA5BA"/>
		</linearGradient>
		<path fill="url(#SVGID_2_)" d="M1.2,37.8l-0.1,0.1v0c0.4,1.3,0.8,2.6,1.4,3.9c4.2,2.3,13.1,5.9,27.8,5.9c13.8,0,22.2-3.1,26.6-5.4
			c0.6-1.3,1.1-2.7,1.5-4.1c-2,1.5-10.6,6.8-28.1,6.8C10,45,1.3,37.8,1.2,37.8L1.2,37.8z M1.2,37.8"/>
		<linearGradient id="SVGID_3_" gradientUnits="userSpaceOnUse" x1="0.996" y1="23.921" x2="58.6772" y2="23.921">
			<stop  offset="0" style="stop-color:#6DA5BA;stop-opacity:0.5"/>
			<stop  offset="1" style="stop-color:#6DA5BA"/>
		</linearGradient>
		<path fill="url(#SVGID_3_)" d="M58.7,22.3c-0.2-0.9-0.5-1.8-0.8-2.7c-2,1.5-9.4,6-27.1,6S4.3,21.1,1.8,19.6
			c-0.3,0.9-0.6,1.7-0.8,2.6c3.4,2,12.5,6.1,29.7,6.1C47.4,28.3,55.5,24.4,58.7,22.3L58.7,22.3z M58.7,22.3"/>
		<linearGradient id="SVGID_4_" gradientUnits="userSpaceOnUse" x1="5.615" y1="51.6397" x2="54.1549" y2="51.6397">
			<stop  offset="0" style="stop-color:#6DA5BA;stop-opacity:0.5"/>
			<stop  offset="1" style="stop-color:#6DA5BA"/>
		</linearGradient>
		<path fill="url(#SVGID_4_)" d="M5.6,47.2c1.6,2.3,3.6,4.3,5.7,6c4.3,1.6,10.6,3.1,19.1,3.1c7.6,0,13.2-1.2,17.3-2.7
			c2.5-1.9,4.6-4.1,6.4-6.6c-0.9,0.9-7.5,6.6-23.7,6.6C14.3,53.6,6.7,48.1,5.6,47.2L5.6,47.2z M5.6,47.2"/>
		<linearGradient id="SVGID_5_" gradientUnits="userSpaceOnUse" x1="56.1837" y1="48.7023" x2="56.2503" y2="48.7023">
			<stop  offset="0" style="stop-color:#6DA5BA;stop-opacity:0.5"/>
			<stop  offset="1" style="stop-color:#6DA5BA"/>
		</linearGradient>
		<path fill="url(#SVGID_5_)" d="M56.2,48.7C56.2,48.7,56.2,48.7,56.2,48.7L56.2,48.7C56.2,48.7,56.2,48.7,56.2,48.7L56.2,48.7z
			 M56.2,48.7"/>
		<linearGradient id="SVGID_6_" gradientUnits="userSpaceOnUse" x1="20.9127" y1="1.5449" x2="38.6556" y2="1.5449">
			<stop  offset="0" style="stop-color:#6DA5BA;stop-opacity:0.5"/>
			<stop  offset="1" style="stop-color:#6DA5BA"/>
		</linearGradient>
		<path fill="url(#SVGID_6_)" d="M30.6,3.1c4-0.1,6.7-1.1,8-1.7c-1.8-0.6-3.7-1-5.6-1.2C32,0.1,30.9,0,29.8,0c-1,0-2.1,0.1-3.1,0.2
			c-2,0.2-3.9,0.6-5.8,1.2c1.2,0.5,4.7,1.7,8.9,1.7C30.1,3.1,30.4,3.1,30.6,3.1L30.6,3.1z M30.6,3.1"/>
		<linearGradient id="SVGID_7_" gradientUnits="userSpaceOnUse" x1="21.0942" y1="61.0909" x2="38.8372" y2="61.0909">
			<stop  offset="0" style="stop-color:#6DA5BA;stop-opacity:0.5"/>
			<stop  offset="1" style="stop-color:#6DA5BA"/>
		</linearGradient>
		<path fill="url(#SVGID_7_)" d="M30.7,59.9c-1.4,0-2.7-0.1-3.8-0.3c-2,0.2-3.9,0.6-5.8,1.2c1.2,0.5,4.7,1.7,8.9,1.7
			c0.3,0,0.5,0,0.8,0c4-0.1,6.7-1.1,8-1.7c-1.8-0.6-3.7-1-5.6-1.2C32.4,59.8,31.6,59.8,30.7,59.9L30.7,59.9z M30.7,59.9"/>
		<linearGradient id="SVGID_8_" gradientUnits="userSpaceOnUse" x1="11.1784" y1="7.7921" x2="48.1301" y2="7.7921">
			<stop  offset="0" style="stop-color:#6DA5BA;stop-opacity:0.5"/>
			<stop  offset="1" style="stop-color:#6DA5BA"/>
		</linearGradient>
		<path fill="url(#SVGID_8_)" d="M48.1,6.3c-0.8-0.6-1.5-1.1-2.3-1.6c-2.3,1.5-7.1,3.6-15.5,3.6c-8.4,0-13.9-2-16.7-3.4
			c-0.8,0.5-1.6,1.1-2.4,1.7c2.8,1.6,9,4.4,19.1,4.4C40.4,10.9,45.7,8.1,48.1,6.3L48.1,6.3z M48.1,6.3"/>
		<linearGradient id="SVGID_9_" gradientUnits="userSpaceOnUse" x1="5.1536" y1="15.3202" x2="54.7795" y2="15.3202">
			<stop  offset="0" style="stop-color:#6DA5BA;stop-opacity:0.5"/>
			<stop  offset="1" style="stop-color:#6DA5BA"/>
		</linearGradient>
		<path fill="url(#SVGID_9_)" d="M54.8,13.5c-0.5-0.7-1-1.5-1.6-2.2c-2.4,1.8-9.1,5.7-22.9,5.7c-12.9,0-20.4-3.9-23.5-6.1
			c-0.6,0.7-1.1,1.4-1.6,2.2c3.5,2.4,11.4,6.6,25.2,6.6C44.6,19.7,51.9,15.7,54.8,13.5L54.8,13.5z M54.8,13.5"/>
	</g>
	<g>
		<path d="M76.7,15.3v16.2h-3.8V15.3H76.7z"/>
		<path d="M81.2,23.6c0-1.5,0-2.8-0.1-3.8h3.3l0.2,1.7h0.1c0.4-0.7,1.7-2,3.9-2c2.4,0,4.6,1.5,4.6,5.3v6.8h-3.8v-6.2
			c0-1.7-0.6-2.7-2.1-2.7c-1.2,0-1.8,0.8-2.1,1.5c-0.1,0.2-0.1,0.6-0.1,0.8v6.6h-3.8V23.6z"/>
		<path d="M101.5,16.3v3.4h2.7v2.8h-2.7v3.9c0,1.4,0.3,2.2,1.5,2.2c0.5,0,0.9,0,1.2-0.1l0,2.9c-0.5,0.2-1.4,0.4-2.5,0.4
			c-1.3,0-2.3-0.5-2.9-1.1c-0.7-0.7-1-1.9-1-3.5v-4.6h-1.6v-2.8h1.6v-2.6L101.5,16.3z"/>
		<path d="M110.5,26.8c0.1,1.4,1.8,2.1,3.6,2.1c1.3,0,2.4-0.1,3.6-0.5l0.5,2.5c-1.3,0.6-2.9,0.8-4.6,0.8c-4.2,0-6.7-2.4-6.7-6
			c0-2.7,1.8-6.3,6.3-6.3c4.2,0,5.7,3.3,5.7,6c0,0.6-0.1,1.2-0.1,1.4H110.5z M115.3,24.2c0-0.7-0.4-2.3-2.3-2.3
			c-1.7,0-2.4,1.4-2.5,2.3H115.3z"/>
		<path d="M122.4,23.7c0-1.9,0-3-0.1-4h3.3l0.1,2.3h0.1c0.6-1.9,2.2-2.6,3.5-2.6c0.3,0,0.5,0,0.8,0.1v3.5c-0.3-0.1-0.6-0.1-1.1-0.1
			c-1.6,0-2.5,0.8-2.7,1.9c0,0.2,0,0.5,0,0.7v5.9h-3.8V23.7z"/>
		<path d="M133.5,15.5c1.5-0.2,3.5-0.4,5.5-0.4c3.4,0,5.6,0.6,7.3,1.8c1.8,1.3,3,3.2,3,6c0,3-1.2,5.1-2.8,6.5
			c-1.9,1.5-4.8,2.3-8.3,2.3c-2.2,0-3.7-0.1-4.7-0.3V15.5z M137.3,28.6c0.4,0,1,0.1,1.5,0.1c3.9,0,6.4-1.9,6.4-5.6
			c0-3.4-2.3-5.1-5.9-5.1c-1,0-1.6,0.1-2,0.2V28.6z"/>
		<path d="M156.9,16.4c0,1-0.8,1.9-2.1,1.9c-1.2,0-2-0.8-2-1.9s0.8-1.8,2-1.8C156.1,14.6,156.9,15.4,156.9,16.4z M153,31.5V19.7h3.8
			v11.7H153z"/>
		<path d="M168.3,31.5l-0.2-1.2H168c-0.8,1-2.1,1.5-3.6,1.5c-2.6,0-4-1.8-4-3.6c0-3,2.7-4.6,7.4-4.6v-0.1c0-0.5-0.3-1.5-2.3-1.5
			c-1.3,0-2.7,0.5-3.5,0.9l-0.7-2.4c0.9-0.5,2.6-1.1,4.9-1.1c4,0,5.5,2.2,5.5,5.1v4c0,1.2,0,2.3,0.2,2.9H168.3z M167.9,26
			c-2.2,0-3.7,0.5-3.7,1.8c0,0.9,0.6,1.3,1.6,1.3c1,0,1.8-0.7,2.1-1.5c0-0.2,0.1-0.5,0.1-0.6V26z"/>
		<path d="M175.9,14.3h3.8v17.2h-3.8V14.3z"/>
		<path d="M196.7,25.5c0,4.1-3.2,6.3-6.8,6.3c-3.6,0-6.6-2.3-6.6-6.1c0-3.6,2.6-6.2,6.9-6.2C194,19.5,196.7,22,196.7,25.5z
			 M187.3,25.6c0,2,1,3.5,2.7,3.5c1.5,0,2.7-1.2,2.7-3.5c0-1.8-0.8-3.5-2.7-3.5C188.1,22.1,187.3,23.8,187.3,25.6z"/>
		<path d="M212.4,19.7c0,0.6-0.1,1.6-0.1,3.4v6.5c0,2.2-0.4,4.2-1.9,5.4c-1.4,1.2-3.3,1.5-5.1,1.5c-1.7,0-3.5-0.4-4.6-1l0.8-2.9
			c0.8,0.5,2.3,1,3.8,1c1.8,0,3.3-0.9,3.3-3.2v-0.8h0c-0.8,1-2,1.6-3.5,1.6c-3,0-5.4-2.2-5.4-5.7c0-3.8,2.7-6.2,5.8-6.2
			c1.8,0,2.9,0.8,3.6,1.8h0l0.1-1.5H212.4z M208.5,24.7c0-0.2,0-0.4,0-0.6c-0.3-1.1-1.1-1.8-2.3-1.8c-1.4,0-2.7,1.1-2.7,3.3
			c0,1.6,0.9,3,2.7,3c1.1,0,2-0.7,2.2-1.7c0.1-0.3,0.1-0.7,0.1-1V24.7z"/>
		<path d="M228.6,27.7c0,1.6,0,2.9,0.1,3.8h-3.3l-0.2-1.8h-0.1c-0.4,0.7-1.6,2.1-4,2.1c-2.4,0-4.5-1.4-4.5-5.2v-6.8h3.8v6.1
			c0,1.8,0.6,2.8,2.1,2.8c1.2,0,1.8-0.8,2.1-1.5c0.1-0.2,0.1-0.4,0.1-0.7v-6.8h3.8V27.7z"/>
		<path d="M235.8,26.8c0.1,1.4,1.8,2.1,3.6,2.1c1.3,0,2.4-0.1,3.6-0.5l0.5,2.5c-1.3,0.6-2.9,0.8-4.6,0.8c-4.2,0-6.7-2.4-6.7-6
			c0-2.7,1.8-6.3,6.3-6.3c4.2,0,5.7,3.3,5.7,6c0,0.6-0.1,1.2-0.1,1.4H235.8z M240.6,24.2c0-0.7-0.4-2.3-2.3-2.3
			c-1.7,0-2.4,1.4-2.5,2.3H240.6z"/>
	</g>
	<g>
		<path fill="#454545" d="M73,38c0.9-0.2,2.4-0.4,3.8-0.4c2.1,0,3.4,0.4,4.4,1.2c0.8,0.6,1.4,1.6,1.4,2.9c0,1.6-1.1,3-2.7,3.6v0.1
			c1.5,0.4,3.3,1.6,3.3,4c0,1.4-0.6,2.5-1.4,3.2c-1.1,1-2.9,1.5-5.6,1.5c-1.4,0-2.5-0.1-3.2-0.2V38z M75.1,44.6H77
			c2.2,0,3.5-1.2,3.5-2.7c0-1.9-1.4-2.6-3.5-2.6c-1,0-1.5,0.1-1.8,0.1V44.6z M75.1,52.3c0.4,0.1,1,0.1,1.8,0.1
			c2.2,0,4.2-0.8,4.2-3.1c0-2.2-1.9-3.1-4.2-3.1h-1.7V52.3z"/>
		<path fill="#454545" d="M96.3,50.7c0,1.2,0,2.3,0.1,3.2h-1.9L94.4,52h0c-0.5,0.9-1.8,2.2-3.8,2.2c-1.8,0-4-1-4-5.1v-6.8h2.1v6.4
			c0,2.2,0.7,3.7,2.6,3.7c1.4,0,2.4-1,2.8-1.9c0.1-0.3,0.2-0.7,0.2-1.1v-7.1h2.1V50.7z"/>
		<path fill="#454545" d="M100.1,51.8c0.6,0.4,1.8,0.8,2.8,0.8c1.5,0,2.2-0.7,2.2-1.7c0-1-0.6-1.5-2.1-2.1c-2.1-0.8-3.1-1.9-3.1-3.3
			c0-1.9,1.5-3.4,4-3.4c1.2,0,2.2,0.3,2.8,0.7l-0.5,1.5c-0.5-0.3-1.3-0.7-2.4-0.7c-1.2,0-1.9,0.7-1.9,1.6c0,1,0.7,1.4,2.2,2
			c2,0.7,3,1.8,3,3.5c0,2.1-1.6,3.5-4.3,3.5c-1.3,0-2.4-0.3-3.3-0.8L100.1,51.8z"/>
		<path fill="#454545" d="M112.8,39c0,0.7-0.5,1.3-1.3,1.3c-0.8,0-1.3-0.6-1.3-1.3c0-0.7,0.5-1.3,1.3-1.3
			C112.3,37.7,112.8,38.3,112.8,39z M110.5,53.9V42.3h2.1v11.6H110.5z"/>
		<path fill="#454545" d="M116.7,45.4c0-1.2,0-2.2-0.1-3.1h1.9l0.1,1.9h0c0.6-1.1,1.9-2.2,3.8-2.2c1.6,0,4.1,1,4.1,4.9v6.9h-2.1
			v-6.7c0-1.9-0.7-3.4-2.7-3.4c-1.4,0-2.4,1-2.8,2.2c-0.1,0.3-0.1,0.6-0.1,1v7h-2.1V45.4z"/>
		<path fill="#454545" d="M131.8,48.5c0,2.9,1.8,4,4,4c1.5,0,2.4-0.3,3.2-0.6l0.4,1.5c-0.7,0.3-2,0.7-3.9,0.7
			c-3.6,0-5.7-2.4-5.7-5.9s2.1-6.2,5.4-6.2c3.8,0,4.8,3.3,4.8,5.4c0,0.4,0,0.7-0.1,1H131.8z M138,47c0-1.3-0.6-3.4-2.9-3.4
			c-2.2,0-3.1,1.9-3.2,3.4H138z"/>
		<path fill="#454545" d="M142.9,51.8c0.6,0.4,1.8,0.8,2.8,0.8c1.5,0,2.2-0.7,2.2-1.7c0-1-0.6-1.5-2.1-2.1c-2.1-0.8-3.1-1.9-3.1-3.3
			c0-1.9,1.5-3.4,4-3.4c1.2,0,2.2,0.3,2.8,0.7l-0.5,1.5c-0.5-0.3-1.3-0.7-2.4-0.7c-1.2,0-1.9,0.7-1.9,1.6c0,1,0.7,1.4,2.2,2
			c2,0.7,3,1.8,3,3.5c0,2.1-1.6,3.5-4.3,3.5c-1.3,0-2.4-0.3-3.3-0.8L142.9,51.8z"/>
		<path fill="#454545" d="M153.1,51.8c0.6,0.4,1.8,0.8,2.8,0.8c1.5,0,2.2-0.7,2.2-1.7c0-1-0.6-1.5-2.1-2.1c-2.1-0.8-3.1-1.9-3.1-3.3
			c0-1.9,1.5-3.4,4-3.4c1.2,0,2.2,0.3,2.8,0.7l-0.5,1.5c-0.5-0.3-1.3-0.7-2.4-0.7c-1.2,0-1.9,0.7-1.9,1.6c0,1,0.7,1.4,2.2,2
			c2,0.7,3,1.8,3,3.5c0,2.1-1.6,3.5-4.3,3.5c-1.3,0-2.4-0.3-3.3-0.8L153.1,51.8z"/>
	</g>
</g>
</svg>
