<svg width="1252.000000" height="405.000000" viewBox="0 0 1252 405" fill="none" xmlns="http://www.w3.org/2000/svg" xmlns:xlink="http://www.w3.org/1999/xlink">
	<desc>
			Created with Pixso.
	</desc>
	<defs>
		<filter id="filter_4_1_dd" x="139.000000" y="159.000000" width="25.000000" height="11.000000" filterUnits="userSpaceOnUse" color-interpolation-filters="sRGB">
			<feFlood flood-opacity="0" result="BackgroundImageFix"/>
			<feColorMatrix in="SourceAlpha" type="matrix" values="0 0 0 0 0 0 0 0 0 0 0 0 0 0 0 0 0 0 127 0" result="hardAlpha"/>
			<feOffset dx="0" dy="4"/>
			<feGaussianBlur stdDeviation="1.33333"/>
			<feComposite in2="hardAlpha" operator="out" k2="-1" k3="1"/>
			<feColorMatrix type="matrix" values="0 0 0 0 0 0 0 0 0 0 0 0 0 0 0 0 0 0 0.45 0"/>
			<feBlend mode="normal" in2="BackgroundImageFix" result="effect_dropShadow_1"/>
			<feBlend mode="normal" in="SourceGraphic" in2="effect_dropShadow_1" result="shape"/>
		</filter>
		<filter id="filter_2_2_dd" x="107.121826" y="145.908447" width="39.972900" height="129.091553" filterUnits="userSpaceOnUse" color-interpolation-filters="sRGB">
			<feFlood flood-opacity="0" result="BackgroundImageFix"/>
			<feColorMatrix in="SourceAlpha" type="matrix" values="0 0 0 0 0 0 0 0 0 0 0 0 0 0 0 0 0 0 127 0" result="hardAlpha"/>
			<feOffset dx="0" dy="4"/>
			<feGaussianBlur stdDeviation="1.33333"/>
			<feComposite in2="hardAlpha" operator="out" k2="-1" k3="1"/>
			<feColorMatrix type="matrix" values="0 0 0 0 0 0 0 0 0 0 0 0 0 0 0 0 0 0 0.45 0"/>
			<feBlend mode="normal" in2="BackgroundImageFix" result="effect_dropShadow_1"/>
			<feBlend mode="normal" in="SourceGraphic" in2="effect_dropShadow_1" result="shape"/>
		</filter>
		<filter id="filter_2_3_dd" x="157.242920" y="133.709229" width="121.187744" height="140.290771" filterUnits="userSpaceOnUse" color-interpolation-filters="sRGB">
			<feFlood flood-opacity="0" result="BackgroundImageFix"/>
			<feColorMatrix in="SourceAlpha" type="matrix" values="0 0 0 0 0 0 0 0 0 0 0 0 0 0 0 0 0 0 127 0" result="hardAlpha"/>
			<feOffset dx="2" dy="2"/>
			<feGaussianBlur stdDeviation="1.33333"/>
			<feComposite in2="hardAlpha" operator="out" k2="-1" k3="1"/>
			<feColorMatrix type="matrix" values="0 0 0 0 0 0 0 0 0 0 0 0 0 0 0 0 0 0 0.45 0"/>
			<feBlend mode="normal" in2="BackgroundImageFix" result="effect_dropShadow_1"/>
			<feBlend mode="normal" in="SourceGraphic" in2="effect_dropShadow_1" result="shape"/>
		</filter>
		<filter id="filter_4_2_dd" x="109.500000" y="134.500000" width="34.000000" height="30.000000" filterUnits="userSpaceOnUse" color-interpolation-filters="sRGB">
			<feFlood flood-opacity="0" result="BackgroundImageFix"/>
			<feColorMatrix in="SourceAlpha" type="matrix" values="0 0 0 0 0 0 0 0 0 0 0 0 0 0 0 0 0 0 127 0" result="hardAlpha"/>
			<feMorphology radius="0.5" in="" result="BackgroundImageFix"/>
			<feOffset dx="0" dy="0"/>
			<feGaussianBlur stdDeviation="1"/>
			<feComposite in2="hardAlpha" operator="out" k2="-1" k3="1"/>
			<feColorMatrix type="matrix" values="0 0 0 0 0 0 0 0 0 0 0 0 0 0 0 0 0 0 0.3 0"/>
			<feBlend mode="normal" in2="BackgroundImageFix" result="effect_dropShadow_1"/>
			<feBlend mode="normal" in="SourceGraphic" in2="effect_dropShadow_1" result="shape"/>
		</filter>
		<filter id="filter_6_8_dd" x="783.500000" y="147.699997" width="32.000000" height="27.000000" filterUnits="userSpaceOnUse" color-interpolation-filters="sRGB">
			<feFlood flood-opacity="0" result="BackgroundImageFix"/>
			<feColorMatrix in="SourceAlpha" type="matrix" values="0 0 0 0 0 0 0 0 0 0 0 0 0 0 0 0 0 0 127 0" result="hardAlpha"/>
			<feMorphology radius="0.5" in="" result="BackgroundImageFix"/>
			<feOffset dx="0" dy="0"/>
			<feGaussianBlur stdDeviation="1"/>
			<feComposite in2="hardAlpha" operator="out" k2="-1" k3="1"/>
			<feColorMatrix type="matrix" values="0 0 0 0 0 0 0 0 0 0 0 0 0 0 0 0 0 0 0.3 0"/>
			<feBlend mode="normal" in2="BackgroundImageFix" result="effect_dropShadow_1"/>
			<feBlend mode="normal" in="SourceGraphic" in2="effect_dropShadow_1" result="shape"/>
		</filter>
	</defs>
	<g opacity="0.000000">
		<rect id="Прямоугольник 6" width="1252.000000" height="405.000000" fill="#FFFFFF" fill-opacity="1.000000"/>
	</g>
	<rect id="Прямоугольник 1" x="90.000000" y="103.000000" rx="26.000000" width="200.000000" height="200.000000" fill="#2B64FA" fill-opacity="1.000000"/>
	<g filter="url(#filter_4_1_dd)">
		<rect id="Прямоугольник 3" x="143.000000" y="159.000000" width="17.000000" height="3.000000" fill="#000000" fill-opacity="1.000000"/>
	</g>
	<g filter="url(#filter_2_2_dd)">
		<path id="I" d="M113.32 266.5Q114.24 267 115.43 267L138.61 267Q139.75 267 140.67 266.54Q141.27 266.24 141.78 265.73Q142.58 264.93 142.89 263.96Q143.09 263.36 143.09 262.69L143.09 150.21Q143.09 149.05 142.6 148.15Q142.29 147.59 141.78 147.13Q141.32 146.68 140.77 146.39Q139.82 145.9 138.61 145.9L115.43 145.9Q114.18 145.9 113.22 146.43Q112.72 146.71 112.3 147.13Q111.96 147.47 111.72 147.87Q111.12 148.86 111.12 150.21L111.12 262.69Q111.12 263.49 111.37 264.2Q111.67 265.03 112.3 265.73Q112.76 266.21 113.32 266.5Z" fill="#FFFFFF" fill-opacity="1.000000" fill-rule="evenodd"/>
	</g>
	<g filter="url(#filter_2_3_dd)">
		<path id="D" d="M161.64 267.46Q162.65 268 163.94 268L214.06 268Q232.56 268 245.29 262.41Q253.26 258.93 258.86 253.16Q262.25 249.67 264.77 245.34Q271.5 233.8 272.24 216.22Q272.43 208.1 272.43 201.87Q272.43 195.6 272.24 187.29Q271.69 170.45 264.67 159.05Q262.56 155.58 259.89 152.62Q253.75 145.8 244.65 141.66Q231.59 135.7 213.09 135.7L163.94 135.7Q162.58 135.7 161.54 136.28Q160.99 136.58 160.53 137.04Q160.16 137.41 159.89 137.85Q159.24 138.93 159.24 140.41L159.24 263.29Q159.24 264.17 159.52 264.94Q159.84 265.84 160.53 266.61Q161.03 267.13 161.64 267.46ZM213.09 240.77L193.25 240.77L193.25 162.93L212.16 162.93Q224.62 162.93 230.94 168.88Q237.27 174.83 237.68 187.66Q238.05 192.97 238.14 197.31Q238.23 201.64 238.14 206.03Q238.05 210.36 237.68 215.85Q237.45 224.71 234.73 230.2Q233.2 233.29 230.82 235.45Q228.97 237.12 226.61 238.23Q221.21 240.77 213.09 240.77Z" fill="#FFFFFF" fill-opacity="1.000000" fill-rule="evenodd"/>
	</g>
	<path id="Прямоугольник 2" d="M115.1 135.8L178.1 135.8L178.1 162.8L111.1 162.8L111.1 139.8C111.1 137.59 112.89 135.8 115.1 135.8Z" fill="#FFFFFF" fill-opacity="1.000000" fill-rule="evenodd"/>
	<g filter="url(#filter_4_2_dd)">
		<rect id="Прямоугольник 4" x="113.000000" y="138.000000" rx="5.000000" width="27.000000" height="23.000000" fill="#FAA42B" fill-opacity="1.000000"/>
	</g>
	<path id="InterDialog" d="M788.82 170.85Q789.65 171.32 790.74 171.32L808 171.32Q808.67 171.32 809.26 171.11Q809.95 170.86 810.53 170.34Q810.94 169.95 811.2 169.49Q811.62 168.71 811.62 167.7L811.62 154.76Q811.62 154.2 811.46 153.7Q811.2 152.9 810.53 152.23Q809.86 151.56 809.06 151.3Q808.56 151.14 808 151.14L790.74 151.14Q789.8 151.14 789.07 151.52Q788.56 151.78 788.14 152.23Q787.61 152.81 787.37 153.5Q787.15 154.09 787.15 154.76L787.15 167.7Q787.15 168.88 787.68 169.74Q787.87 170.06 788.14 170.34Q788.45 170.64 788.82 170.85ZM488.39 254.04Q495.11 257 504.32 257L517.71 257Q518.7 257 519.46 256.59Q519.93 256.34 520.31 255.94Q520.89 255.33 521.14 254.6Q521.33 254.04 521.33 253.41L521.33 240.86Q521.33 239.79 520.86 238.99Q520.64 238.61 520.31 238.29Q519.96 237.94 519.55 237.71Q518.75 237.27 517.71 237.27L506.64 237.27Q503.2 237.27 501.29 235.57Q500.71 235.06 500.27 234.39Q498.41 231.51 498.41 226.62L498.41 200.99L516.41 200.99Q517.37 200.99 518.15 200.62Q518.65 200.37 519.08 199.97Q519.53 199.56 519.79 199.05Q520.17 198.31 520.17 197.37L520.17 185.7Q520.17 184.73 519.76 183.99Q519.5 183.51 519.08 183.13Q518.65 182.73 518.15 182.49Q517.37 182.11 516.41 182.11L498.41 182.11L498.41 158.35Q498.41 157.28 497.94 156.48Q497.72 156.1 497.39 155.78Q497.07 155.45 496.69 155.23Q495.9 154.76 494.82 154.76L478.13 154.76Q477.5 154.76 476.94 154.95Q476.21 155.21 475.59 155.78Q475.17 156.16 474.91 156.63Q474.5 157.38 474.5 158.35L474.5 182.11L463.29 182.11Q462.33 182.11 461.55 182.49Q461.04 182.73 460.62 183.13Q460.19 183.51 459.94 183.99Q459.53 184.73 459.53 185.7L459.53 197.37Q459.53 198.31 459.91 199.05Q460.17 199.56 460.62 199.97Q461.04 200.37 461.55 200.62Q462.33 200.99 463.29 200.99L474.5 200.99L474.5 228.62Q474.5 238.57 478.09 244.83Q479.81 247.8 482.21 250.02Q484.88 252.49 488.39 254.04ZM915.27 256.59Q916.04 257 917.03 257L934.01 257Q934.99 257 935.76 256.59Q936.22 256.34 936.61 255.94Q937.18 255.33 937.43 254.6Q937.63 254.04 937.63 253.41L937.63 158.35Q937.63 157.28 937.16 156.48Q936.94 156.1 936.61 155.78Q936.26 155.43 935.84 155.2Q935.04 154.76 934.01 154.76L917.03 154.76Q915.99 154.76 915.19 155.2Q914.77 155.43 914.42 155.78Q914.14 156.06 913.94 156.39Q913.44 157.22 913.44 158.35L913.44 253.41Q913.44 254.08 913.65 254.67Q913.9 255.36 914.42 255.94Q914.81 256.34 915.27 256.59ZM330.92 256.59Q331.69 257 332.67 257L351.97 257Q352.92 257 353.68 256.62Q354.19 256.36 354.61 255.94Q355.28 255.27 355.54 254.47Q355.7 253.97 355.7 253.41L355.7 159.79Q355.7 158.82 355.29 158.08Q355.03 157.6 354.61 157.22Q354.22 156.85 353.76 156.61Q352.97 156.2 351.97 156.2L332.67 156.2Q331.63 156.2 330.84 156.64Q330.42 156.87 330.07 157.22Q329.79 157.5 329.59 157.84Q329.09 158.66 329.09 159.79L329.09 253.41Q329.09 254.08 329.3 254.67Q329.54 255.36 330.07 255.94Q330.45 256.34 330.92 256.59ZM687.61 256.59Q688.37 257 689.36 257L727.54 257Q741.64 257 751.34 252.74Q757.41 250.09 761.68 245.69Q764.26 243.03 766.18 239.73Q771.31 230.94 771.87 217.55Q772.01 211.36 772.01 206.62Q772.01 201.84 771.87 195.51Q771.45 182.68 766.11 173.99Q764.5 171.35 762.46 169.09Q757.78 163.9 750.85 160.74Q740.9 156.2 726.8 156.2L689.36 156.2Q688.32 156.2 687.52 156.64Q687.11 156.87 686.76 157.22Q686.48 157.5 686.27 157.84Q685.77 158.66 685.77 159.79L685.77 253.41Q685.77 254.08 685.99 254.67Q686.23 255.36 686.76 255.94Q687.14 256.34 687.61 256.59ZM726.8 236.25L711.68 236.25L711.68 176.94L726.1 176.94Q735.59 176.94 740.41 181.48Q745.22 186.02 745.54 195.79Q745.82 199.83 745.89 203.14Q745.96 206.44 745.89 209.78Q745.82 213.09 745.54 217.27Q745.36 224.02 743.29 228.2Q742.12 230.55 740.31 232.2Q738.9 233.47 737.1 234.32Q732.99 236.25 726.8 236.25ZM375.99 256.59Q376.76 257 377.75 257L395.75 257Q396.38 257 396.94 256.79Q397.65 256.53 398.24 255.94Q398.91 255.27 399.17 254.47Q399.33 253.97 399.33 253.41L399.33 214.07Q399.33 207.64 402.52 204.02Q402.68 203.84 402.85 203.66Q403.82 202.65 404.97 201.92Q408.02 199.97 412.3 199.97Q417.64 199.97 420.78 202.6Q421.36 203.09 421.87 203.66Q425.14 207.32 425.14 214.07L425.14 253.41Q425.14 254 425.31 254.53Q425.57 255.3 426.19 255.94Q426.83 256.56 427.6 256.82Q428.13 257 428.72 257L446.86 257Q447.85 257 448.61 256.59Q449.08 256.34 449.46 255.94Q450.04 255.33 450.29 254.6Q450.48 254.04 450.48 253.41L450.48 213.23Q450.48 202.57 446.79 195.37Q444.04 189.94 439.71 186.49Q438.29 185.35 436.7 184.43Q436.07 184.06 435.41 183.72Q429.48 180.67 421.97 180.67Q413.75 180.67 407.7 183.69Q401.65 186.72 398.07 191.18L398.07 185.7Q398.07 184.73 397.66 183.99Q397.4 183.51 396.98 183.13Q396.55 182.73 396.04 182.49Q395.26 182.11 394.3 182.11L377.75 182.11Q376.71 182.11 375.91 182.55Q375.49 182.78 375.14 183.13Q374.86 183.41 374.66 183.75Q374.16 184.57 374.16 185.7L374.16 253.41Q374.16 254.08 374.37 254.67Q374.62 255.36 375.14 255.94Q375.53 256.34 375.99 256.59ZM543.09 251.18Q552.74 258.44 567.84 258.44Q576.63 258.44 583.24 256.29Q589.84 254.11 594.24 250.74Q598.63 247.36 600.92 243.92Q603.24 240.44 603.38 237.98Q603.5 237.04 603.13 236.35Q602.94 235.98 602.61 235.69Q602.32 235.43 601.99 235.24Q601.22 234.81 600.22 234.81L582.36 234.81Q580.63 234.81 579.83 235.2Q579.05 235.55 577.75 237.13Q577.05 237.98 575.75 239.21Q574.45 240.44 572.51 241.39Q570.58 242.3 567.7 242.3Q564.31 242.3 561.85 240.79Q561.47 240.56 561.12 240.3Q560.71 239.98 560.32 239.64Q558.24 237.76 557.08 234.85Q555.74 231.37 555.6 227.18L555.6 226.16L601.66 226.16Q602.75 226.16 603.58 225.69Q603.95 225.48 604.26 225.18Q604.61 224.83 604.84 224.41Q605.28 223.62 605.28 222.58L605.28 219.13Q605.28 208.02 601.09 199.41Q599.13 195.35 596.26 192.08Q593.01 188.4 588.62 185.73Q580.35 180.67 567.7 180.67Q556.59 180.67 548.29 184.93Q544.46 186.9 541.4 189.71Q537.86 192.96 535.35 197.34Q530.68 205.46 530.26 216.81L530.26 221.87Q530.64 238.48 539.1 247.6Q539.88 248.45 540.73 249.23Q541.87 250.26 543.09 251.18ZM837.02 255.48Q843.14 258.44 850.94 258.44Q856.53 258.44 860.79 257.07Q865.04 255.69 868.21 253.41Q871.37 251.09 873.27 248.35L873.27 253.41Q873.27 254.08 873.48 254.67Q873.72 255.36 874.25 255.94Q874.64 256.34 875.1 256.59Q875.87 257 876.85 257L893.55 257Q894.19 257 894.75 256.79Q895.46 256.53 896.05 255.94Q896.72 255.27 896.98 254.47Q897.14 253.97 897.14 253.41L897.14 209.6Q897.14 203.28 895.21 198.04Q894.36 195.74 893.1 193.71Q891.45 191.08 889.09 188.9Q884.91 185 878.26 182.85Q871.65 180.67 862.44 180.67Q853.37 180.67 847.04 182.85Q840.71 185 836.67 188.3Q832.63 191.6 830.69 195.02Q828.76 198.39 828.76 200.99Q828.68 201.7 828.9 202.31Q829.08 202.81 829.46 203.24Q829.61 203.39 829.77 203.52Q830.6 204.16 831.92 204.16L848.06 204.16Q849.22 204.16 850.12 203.68Q851.01 203.21 851.65 202.29Q852.62 200.44 854.08 199.12Q854.78 198.48 855.58 197.97Q858.12 196.39 862.16 196.39Q867.92 196.39 870.07 199.13Q872.25 201.84 872.25 207.04L872.25 209.04L854.25 211.78Q840.43 213.93 832.07 219.91Q827.83 222.93 825.74 227.04Q823.7 231.06 823.7 236.11Q823.7 239.62 824.8 242.73Q825.68 245.24 827.28 247.5Q827.76 248.17 828.28 248.79Q831.71 252.92 837.02 255.48ZM969.64 254.57Q977.93 258.44 990.03 258.44Q1002.26 258.44 1010.53 254.57Q1016.51 251.75 1020.47 247.18Q1021.99 245.42 1023.22 243.39Q1027.61 236.11 1028.21 226.02Q1028.35 223.14 1028.35 219.48Q1028.35 215.83 1028.21 213.09Q1027.61 202.85 1023.01 195.65Q1021.69 193.59 1020.08 191.81Q1016.03 187.34 1010.1 184.57Q1001.84 180.67 990.03 180.67Q978.39 180.67 970.09 184.57Q964.16 187.34 960.12 191.81Q958.5 193.59 957.19 195.65Q952.58 202.85 952.02 213.09Q951.88 215.83 951.88 219.48Q951.88 223.14 952.02 226.02Q952.58 236.11 956.98 243.39Q958.24 245.48 959.82 247.29Q963.75 251.79 969.64 254.57ZM1060.96 285.79Q1068.24 288.67 1079.31 288.67Q1091.27 288.67 1099.67 284.77Q1105.43 282.13 1109.31 277.8Q1111.11 275.79 1112.5 273.41Q1116.9 265.93 1116.9 254.99L1116.9 185.7Q1116.9 185.21 1116.77 184.76Q1116.52 183.92 1115.81 183.2Q1115.35 182.73 1114.8 182.47Q1114.06 182.11 1113.17 182.11L1096.61 182.11Q1095.68 182.11 1094.93 182.49Q1094.43 182.76 1094.01 183.2Q1093.39 183.87 1093.15 184.65Q1092.99 185.15 1092.99 185.7L1092.99 191.04Q1089.4 186.58 1083.85 183.62Q1078.3 180.67 1070.53 180.67Q1063.18 180.67 1057.55 183.06Q1053.68 184.69 1050.65 187.31Q1049.31 188.46 1048.13 189.81Q1044.32 194.21 1042.3 200.46Q1040.29 206.72 1039.87 214.39Q1039.73 218.25 1039.87 222.02Q1040.29 230.07 1042.37 236.25Q1044.48 242.44 1048.19 246.77Q1049.34 248.07 1050.64 249.18Q1053.65 251.75 1057.55 253.27Q1063.18 255.41 1070.53 255.41Q1077.87 255.41 1083.04 253.2Q1088.24 250.95 1091.55 247.36L1091.55 257Q1091.55 262.16 1090.11 265.26Q1089.15 267.35 1087.54 268.64Q1086.74 269.28 1085.78 269.72Q1082.93 271.09 1078.61 271.09Q1074.71 271.09 1072.46 269.93Q1070.24 268.81 1069.07 267.16Q1067.96 265.5 1067.07 263.92Q1066.52 262.34 1065.64 261.6Q1064.76 260.9 1063.31 260.9L1045.04 260.9Q1044.22 260.9 1043.51 261.18Q1042.86 261.44 1042.3 261.95Q1041.75 262.48 1041.51 263.12Q1041.24 263.8 1041.31 264.62Q1041.44 266.94 1043.31 270.88Q1045.18 274.85 1049.43 278.86Q1053.68 282.91 1060.96 285.79ZM620.65 256.59Q621.42 257 622.4 257L640.26 257Q641.21 257 641.97 256.62Q642.48 256.36 642.9 255.94Q643.57 255.27 643.82 254.47Q643.99 253.97 643.99 253.41L643.99 216.53Q643.99 211.23 646.59 208.09Q646.89 207.72 647.22 207.39Q647.57 207.05 647.94 206.74Q651.12 204.16 656.4 204.16L670.35 204.16Q671.32 204.16 672.07 203.75Q672.54 203.49 672.92 203.07Q673.5 202.45 673.75 201.72Q673.94 201.16 673.94 200.53L673.94 185.7Q673.94 184.63 673.47 183.83Q673.25 183.45 672.92 183.13Q672.6 182.8 672.22 182.58Q671.43 182.11 670.35 182.11L664.03 182.11Q657.24 182.11 651.83 184.57Q648.75 185.96 646.21 188.02Q644.32 189.55 642.72 191.46L642.72 185.7Q642.72 185.21 642.59 184.76Q642.34 183.92 641.63 183.2Q641.14 182.71 640.54 182.44Q639.82 182.11 638.96 182.11L622.4 182.11Q621.46 182.11 620.73 182.49Q620.21 182.76 619.8 183.2Q619.22 183.84 618.99 184.58Q618.82 185.11 618.82 185.7L618.82 253.41Q618.82 254.08 619.03 254.67Q619.27 255.36 619.8 255.94Q620.18 256.34 620.65 256.59ZM789.13 256.59Q789.9 257 790.88 257L807.86 257Q808.85 257 809.61 256.59Q810.08 256.34 810.46 255.94Q811.04 255.33 811.29 254.6Q811.48 254.04 811.48 253.41L811.48 185.7Q811.48 184.63 811.02 183.83Q810.79 183.45 810.46 183.13Q810.11 182.78 809.7 182.55Q808.9 182.11 807.86 182.11L790.88 182.11Q789.84 182.11 789.05 182.55Q788.63 182.78 788.28 183.13Q788 183.41 787.8 183.75Q787.3 184.57 787.3 185.7L787.3 253.41Q787.3 254.08 787.51 254.67Q787.75 255.36 788.28 255.94Q788.66 256.34 789.13 256.59ZM579.93 211.93L555.6 211.93L555.6 211.64Q555.6 206.9 557.01 203.52Q558.21 200.68 560.31 198.92Q560.73 198.56 561.19 198.25Q561.6 197.97 562.04 197.73Q564.5 196.39 567.7 196.39Q571.14 196.39 573.74 197.86Q574.07 198.04 574.38 198.25Q575.11 198.74 575.75 199.33Q577.55 201.01 578.56 203.52Q579.93 206.9 579.93 211.64L579.93 211.93ZM998.43 238.14Q995.47 240.86 990.03 240.86Q985.2 240.86 982.25 238.5Q981.42 237.84 980.74 236.99Q977.65 233.09 977.37 225.32Q977.23 223.14 977.23 219.55Q977.23 215.97 977.37 213.79Q977.65 206.16 980.74 202.22Q981.5 201.25 982.45 200.51Q985.35 198.25 990.03 198.25Q995.32 198.25 998.26 200.88Q998.93 201.48 999.48 202.22Q1002.44 206.16 1002.86 213.79Q1003 215.97 1003 219.55Q1003 223.14 1002.86 225.32Q1002.44 233.09 999.48 236.99Q999 237.62 998.43 238.14ZM1085.78 234.67Q1082.93 236.68 1078.3 236.68Q1073.55 236.68 1070.74 234.67Q1069.86 234.04 1069.14 233.27Q1067.56 231.58 1066.73 229.22Q1065.5 225.74 1065.22 221.56Q1065.07 218.25 1065.22 215.09Q1065.5 210.91 1066.73 207.46Q1067.56 205.1 1069.14 203.42Q1069.86 202.64 1070.74 202.01Q1073.55 199.97 1078.3 199.97Q1082.93 199.97 1085.78 201.94Q1087.29 202.95 1088.38 204.29Q1089.38 205.52 1090.04 207.04Q1091.41 210.2 1091.55 213.93Q1091.68 215.37 1091.68 218.25Q1091.68 221.14 1091.55 222.72Q1091.43 225.83 1090.4 228.61Q1090.23 229.06 1090.04 229.5Q1089.43 230.9 1088.54 232.06Q1087.4 233.55 1085.78 234.67ZM864.39 240.65Q861.35 242.02 857.69 242.02Q854.95 242.02 852.56 241.1Q850.23 240.17 848.79 238.47Q848.78 238.45 848.76 238.43Q848.25 237.8 847.92 237.09Q847.32 235.81 847.32 234.25Q847.32 233.46 847.52 232.72Q848.1 230.5 850.42 228.73Q853.51 226.34 860.3 225.18L872.53 223L872.53 225.04Q872.53 230.8 870.56 234.64Q869.03 237.64 866.6 239.39Q865.96 239.85 865.25 240.23Q864.83 240.45 864.39 240.65Z" fill="#333333" fill-opacity="1.000000" fill-rule="evenodd"/>
	<g filter="url(#filter_6_8_dd)">
		<rect id="Прямоугольник 5" x="787.000000" y="151.199997" rx="3.000000" width="25.000000" height="20.000000" fill="#FAA42B" fill-opacity="1.000000"/>
	</g>
</svg>
