<svg width="1252.000000" height="405.000000" viewBox="0 0 1252 405" fill="none" xmlns="http://www.w3.org/2000/svg" xmlns:xlink="http://www.w3.org/1999/xlink">
	<desc>
			Created with Pixso.
	</desc>
	<defs/>
	<g opacity="0.000000">
		<rect id="Прямоугольник 6" width="1252.000000" height="405.000000" fill="#FFFFFF" fill-opacity="1.000000"/>
	</g>
	<rect id="Прямоугольник 1" x="89.803955" y="104.000000" rx="26.000000" width="200.000000" height="200.000000" fill="#2B64FA" fill-opacity="1.000000"/>
	<path id="I" d="M113.12 267.5Q114.05 268 115.23 268L138.42 268Q139.56 268 140.47 267.54Q141.08 267.24 141.58 266.73Q142.39 265.93 142.7 264.96Q142.89 264.36 142.89 263.69L142.89 151.21Q142.89 150.05 142.4 149.15Q142.09 148.59 141.58 148.13Q141.12 147.68 140.57 147.39Q139.62 146.9 138.42 146.9L115.23 146.9Q113.98 146.9 113.03 147.43Q112.52 147.71 112.1 148.13Q111.76 148.47 111.52 148.87Q110.92 149.86 110.92 151.21L110.92 263.69Q110.92 264.49 111.18 265.2Q111.47 266.03 112.1 266.73Q112.57 267.21 113.12 267.5Z" fill="#FFFFFF" fill-opacity="1.000000" fill-rule="evenodd"/>
	<path id="D" d="M161.45 268.46Q162.46 269 163.75 269L213.86 269Q232.36 269 245.1 263.41Q253.07 259.93 258.67 254.16Q262.05 250.67 264.57 246.34Q271.31 234.8 272.04 217.22Q272.23 209.1 272.23 202.87Q272.23 196.6 272.04 188.29Q271.49 171.45 264.48 160.05Q262.36 156.58 259.69 153.62Q253.55 146.8 244.45 142.66Q231.39 136.7 212.89 136.7L163.75 136.7Q162.39 136.7 161.34 137.28Q160.79 137.58 160.33 138.04Q159.96 138.41 159.7 138.85Q159.04 139.93 159.04 141.41L159.04 264.29Q159.04 265.17 159.32 265.94Q159.64 266.84 160.33 267.61Q160.84 268.13 161.45 268.46ZM212.89 241.77L193.05 241.77L193.05 163.93L211.97 163.93Q224.43 163.93 230.75 169.88Q237.07 175.83 237.48 188.66Q237.85 193.97 237.95 198.31Q238.04 202.64 237.95 207.03Q237.85 211.36 237.48 216.85Q237.25 225.71 234.53 231.2Q233 234.29 230.62 236.45Q228.77 238.12 226.41 239.23Q221.01 241.77 212.89 241.77Z" fill="#FFFFFF" fill-opacity="1.000000" fill-rule="evenodd"/>
	<path id="Прямоугольник 2" d="M114.9 136.8L177.9 136.8L177.9 163.8L110.9 163.8L110.9 140.8C110.9 138.59 112.69 136.8 114.9 136.8Z" fill="#FFFFFF" fill-opacity="1.000000" fill-rule="evenodd"/>
	<path id="InterDialog" d="M627.26 128.17Q627.84 128.5 628.6 128.5L640.58 128.5Q641.05 128.5 641.46 128.35Q641.94 128.18 642.34 127.81Q642.62 127.55 642.8 127.23Q643.1 126.69 643.1 125.98L643.1 117Q643.1 116.61 642.99 116.26Q642.81 115.71 642.34 115.24Q641.88 114.78 641.32 114.6Q640.97 114.48 640.58 114.48L628.6 114.48Q627.95 114.48 627.43 114.75Q627.08 114.93 626.79 115.24Q626.42 115.65 626.25 116.12Q626.11 116.54 626.11 117L626.11 125.98Q626.11 126.8 626.47 127.4Q626.6 127.62 626.79 127.81Q627.01 128.03 627.26 128.17ZM418.63 185.94Q423.29 188 429.69 188L438.99 188Q439.68 188 440.21 187.71Q440.53 187.54 440.8 187.26Q441.2 186.84 441.37 186.33Q441.51 185.94 441.51 185.51L441.51 176.79Q441.51 176.05 441.18 175.49Q441.03 175.23 440.8 175.01Q440.56 174.76 440.27 174.6Q439.71 174.3 438.99 174.3L431.3 174.3Q428.92 174.3 427.59 173.11Q427.19 172.76 426.88 172.3Q425.59 170.3 425.59 166.9L425.59 149.1L438.09 149.1Q438.76 149.1 439.3 148.84Q439.65 148.67 439.94 148.39Q440.25 148.11 440.44 147.75Q440.7 147.24 440.7 146.59L440.7 138.48Q440.7 137.81 440.42 137.29Q440.24 136.97 439.94 136.7Q439.65 136.42 439.3 136.25Q438.76 135.99 438.09 135.99L425.59 135.99L425.59 119.49Q425.59 118.75 425.26 118.19Q425.11 117.93 424.88 117.71Q424.66 117.48 424.4 117.32Q423.84 117 423.1 117L411.5 117Q411.07 117 410.68 117.13Q410.17 117.31 409.74 117.71Q409.45 117.97 409.27 118.3Q408.99 118.82 408.99 119.49L408.99 135.99L401.2 135.99Q400.53 135.99 399.99 136.25Q399.64 136.42 399.34 136.7Q399.05 136.97 398.87 137.29Q398.59 137.81 398.59 138.48L398.59 146.59Q398.59 147.24 398.85 147.75Q399.03 148.11 399.34 148.39Q399.64 148.67 399.99 148.84Q400.53 149.1 401.2 149.1L408.99 149.1L408.99 168.29Q408.99 175.2 411.48 179.55Q412.67 181.61 414.34 183.15Q416.19 184.87 418.63 185.94ZM715.08 187.71Q715.61 188 716.29 188L728.09 188Q728.77 188 729.3 187.71Q729.63 187.54 729.89 187.26Q730.29 186.84 730.47 186.33Q730.6 185.94 730.6 185.51L730.6 119.49Q730.6 118.75 730.28 118.19Q730.12 117.93 729.89 117.71Q729.65 117.46 729.36 117.3Q728.81 117 728.09 117L716.29 117Q715.57 117 715.02 117.3Q714.73 117.46 714.49 117.71Q714.29 117.9 714.15 118.13Q713.8 118.71 713.8 119.49L713.8 185.51Q713.8 185.97 713.95 186.38Q714.12 186.86 714.49 187.26Q714.75 187.54 715.08 187.71ZM309.28 187.71Q309.81 188 310.49 188L323.9 188Q324.56 188 325.08 187.73Q325.43 187.56 325.73 187.26Q326.19 186.8 326.37 186.24Q326.48 185.89 326.48 185.51L326.48 120.49Q326.48 119.82 326.2 119.3Q326.02 118.97 325.73 118.71Q325.46 118.45 325.14 118.28Q324.59 118 323.9 118L310.49 118Q309.77 118 309.22 118.31Q308.93 118.47 308.69 118.71Q308.49 118.9 308.35 119.14Q308 119.71 308 120.49L308 185.51Q308 185.97 308.15 186.38Q308.32 186.86 308.69 187.26Q308.95 187.54 309.28 187.71ZM556.98 187.71Q557.51 188 558.19 188L584.71 188Q594.5 188 601.23 185.04Q605.45 183.2 608.41 180.14Q610.2 178.3 611.54 176.01Q615.1 169.9 615.49 160.6Q615.59 156.31 615.59 153.01Q615.59 149.69 615.49 145.3Q615.2 136.38 611.49 130.35Q610.37 128.52 608.96 126.95Q605.71 123.34 600.89 121.15Q593.98 118 584.19 118L558.19 118Q557.47 118 556.92 118.31Q556.63 118.47 556.39 118.71Q556.19 118.9 556.05 119.14Q555.7 119.71 555.7 120.49L555.7 185.51Q555.7 185.97 555.85 186.38Q556.02 186.86 556.39 187.26Q556.65 187.54 556.98 187.71ZM584.19 173.59L573.7 173.59L573.7 132.4L583.71 132.4Q590.3 132.4 593.64 135.55Q596.99 138.7 597.21 145.49Q597.4 148.3 597.45 150.59Q597.5 152.89 597.45 155.21Q597.4 157.5 597.21 160.41Q597.08 165.1 595.64 168Q594.83 169.63 593.58 170.77Q592.6 171.66 591.35 172.25Q588.49 173.59 584.19 173.59ZM340.58 187.71Q341.11 188 341.79 188L354.29 188Q354.74 188 355.13 187.85Q355.62 187.67 356.03 187.26Q356.49 186.8 356.67 186.24Q356.78 185.89 356.78 185.51L356.78 158.19Q356.78 153.72 359 151.21Q359.11 151.08 359.23 150.96Q359.9 150.25 360.7 149.75Q362.82 148.39 365.79 148.39Q369.5 148.39 371.68 150.22Q372.08 150.56 372.43 150.96Q374.7 153.5 374.7 158.19L374.7 185.51Q374.7 185.92 374.83 186.29Q375 186.82 375.44 187.26Q375.88 187.7 376.41 187.87Q376.78 188 377.19 188L389.79 188Q390.48 188 391.01 187.71Q391.33 187.54 391.6 187.26Q392 186.84 392.17 186.33Q392.31 185.94 392.31 185.51L392.31 157.6Q392.31 150.2 389.74 145.2Q387.83 141.43 384.83 139.03Q383.84 138.24 382.74 137.6Q382.29 137.35 381.84 137.11Q377.72 134.99 372.51 134.99Q366.79 134.99 362.59 137.09Q358.4 139.19 355.91 142.29L355.91 138.48Q355.91 137.81 355.62 137.29Q355.44 136.97 355.15 136.7Q354.85 136.42 354.5 136.25Q353.96 135.99 353.29 135.99L341.79 135.99Q341.07 135.99 340.52 136.3Q340.23 136.46 339.99 136.7Q339.79 136.9 339.65 137.13Q339.3 137.7 339.3 138.48L339.3 185.51Q339.3 185.97 339.45 186.38Q339.62 186.86 339.99 187.26Q340.25 187.54 340.58 187.71ZM456.62 183.96Q463.32 189 473.8 189Q479.91 189 484.5 187.51Q489.09 185.99 492.14 183.65Q495.19 181.31 496.78 178.91Q498.39 176.5 498.49 174.79Q498.57 174.13 498.31 173.66Q498.18 173.4 497.95 173.2Q497.75 173.02 497.52 172.89Q496.99 172.59 496.29 172.59L483.89 172.59Q482.69 172.59 482.13 172.86Q481.59 173.1 480.69 174.2Q480.2 174.79 479.3 175.64Q478.39 176.5 477.05 177.16Q475.71 177.79 473.71 177.79Q471.35 177.79 469.64 176.74Q469.38 176.58 469.14 176.4Q468.85 176.18 468.58 175.94Q467.14 174.63 466.33 172.61Q465.4 170.2 465.31 167.29L465.31 166.58L497.29 166.58Q498.05 166.58 498.62 166.26Q498.88 166.11 499.1 165.9Q499.34 165.66 499.5 165.37Q499.8 164.82 499.8 164.09L499.8 161.7Q499.8 153.99 496.9 148Q495.53 145.18 493.54 142.92Q491.29 140.36 488.23 138.51Q482.49 134.99 473.71 134.99Q465.99 134.99 460.23 137.95Q457.57 139.32 455.44 141.27Q452.99 143.53 451.24 146.56Q448 152.2 447.7 160.09L447.7 163.61Q447.97 175.14 453.85 181.47Q454.39 182.06 454.98 182.6Q455.77 183.32 456.62 183.96ZM660.74 186.95Q664.98 189 670.4 189Q674.29 189 677.24 188.04Q680.19 187.09 682.39 185.51Q684.59 183.89 685.91 181.99L685.91 185.51Q685.91 185.97 686.05 186.38Q686.22 186.86 686.59 187.26Q686.86 187.54 687.18 187.71Q687.71 188 688.4 188L699.99 188Q700.44 188 700.83 187.85Q701.32 187.67 701.73 187.26Q702.19 186.8 702.37 186.24Q702.48 185.89 702.48 185.51L702.48 155.09Q702.48 150.69 701.14 147.05Q700.56 145.46 699.68 144.05Q698.53 142.22 696.89 140.71Q693.99 138 689.37 136.51Q684.78 134.99 678.39 134.99Q672.09 134.99 667.69 136.51Q663.3 138 660.49 140.29Q657.68 142.59 656.34 144.95Q655 147.3 655 149.1Q654.95 149.6 655.09 150.02Q655.22 150.37 655.49 150.67Q655.59 150.77 655.7 150.86Q656.28 151.3 657.2 151.3L668.4 151.3Q669.21 151.3 669.83 150.97Q670.45 150.64 670.89 150.01Q671.57 148.72 672.58 147.8Q673.06 147.36 673.63 147Q675.38 145.91 678.19 145.91Q682.2 145.91 683.69 147.81Q685.2 149.69 685.2 153.3L685.2 154.69L672.7 156.6Q663.1 158.09 657.29 162.24Q654.35 164.34 652.9 167.2Q651.48 169.98 651.48 173.49Q651.48 175.93 652.25 178.09Q652.86 179.84 653.97 181.4Q654.31 181.86 654.67 182.3Q657.05 185.17 660.74 186.95ZM752.83 186.31Q758.59 189 766.99 189Q775.48 189 781.22 186.31Q785.38 184.36 788.13 181.18Q789.19 179.95 790.04 178.55Q793.09 173.49 793.5 166.49Q793.6 164.48 793.6 161.95Q793.6 159.41 793.5 157.5Q793.09 150.4 789.89 145.39Q788.98 143.97 787.86 142.73Q785.05 139.62 780.93 137.7Q775.19 134.99 766.99 134.99Q758.91 134.99 753.15 137.7Q749.03 139.62 746.22 142.73Q745.1 143.97 744.19 145.39Q740.99 150.4 740.6 157.5Q740.5 159.41 740.5 161.95Q740.5 164.48 740.6 166.49Q740.99 173.49 744.04 178.55Q744.92 180 746.01 181.26Q748.74 184.38 752.83 186.31ZM816.25 207.99Q821.3 209.99 828.99 209.99Q837.29 209.99 843.13 207.28Q847.13 205.45 849.82 202.44Q851.07 201.05 852.04 199.4Q855.09 194.2 855.09 186.6L855.09 138.48Q855.09 138.15 855 137.84Q854.83 137.25 854.33 136.75Q854.02 136.42 853.63 136.24Q853.13 135.99 852.5 135.99L841 135.99Q840.35 135.99 839.84 136.26Q839.49 136.44 839.2 136.75Q838.77 137.21 838.6 137.75Q838.49 138.1 838.49 138.48L838.49 142.19Q836 139.09 832.14 137.04Q828.28 134.99 822.89 134.99Q817.79 134.99 813.88 136.65Q811.19 137.79 809.09 139.6Q808.15 140.4 807.34 141.34Q804.7 144.39 803.28 148.74Q801.89 153.08 801.6 158.41Q801.5 161.09 801.6 163.7Q801.89 169.29 803.33 173.59Q804.8 177.89 807.39 180.89Q808.17 181.8 809.08 182.57Q811.17 184.35 813.88 185.41Q817.79 186.9 822.89 186.9Q827.99 186.9 831.58 185.36Q835.19 183.8 837.49 181.31L837.49 188Q837.49 191.58 836.49 193.73Q835.82 195.18 834.71 196.08Q834.15 196.52 833.48 196.83Q831.51 197.79 828.5 197.79Q825.79 197.79 824.23 196.98Q822.69 196.2 821.89 195.05Q821.11 193.9 820.5 192.81Q820.11 191.71 819.5 191.19Q818.88 190.71 817.88 190.71L805.19 190.71Q804.62 190.71 804.13 190.9Q803.67 191.08 803.28 191.44Q802.91 191.8 802.74 192.25Q802.55 192.72 802.6 193.29Q802.7 194.9 803.99 197.64Q805.29 200.4 808.24 203.18Q811.19 205.99 816.25 207.99ZM510.48 187.71Q511.01 188 511.69 188L524.1 188Q524.76 188 525.28 187.73Q525.63 187.56 525.93 187.26Q526.39 186.8 526.57 186.24Q526.68 185.89 526.68 185.51L526.68 159.89Q526.68 156.22 528.49 154.03Q528.7 153.78 528.93 153.55Q529.17 153.31 529.43 153.1Q531.63 151.3 535.3 151.3L544.99 151.3Q545.67 151.3 546.18 151.02Q546.51 150.84 546.78 150.54Q547.18 150.12 547.35 149.61Q547.49 149.22 547.49 148.79L547.49 138.48Q547.49 137.74 547.16 137.19Q547.01 136.92 546.78 136.7Q546.56 136.47 546.29 136.32Q545.74 135.99 544.99 135.99L540.6 135.99Q535.89 135.99 532.13 137.7Q529.99 138.67 528.23 140.09Q526.91 141.16 525.81 142.49L525.81 138.48Q525.81 138.15 525.71 137.84Q525.54 137.25 525.05 136.75Q524.7 136.41 524.29 136.22Q523.79 135.99 523.19 135.99L511.69 135.99Q511.04 135.99 510.53 136.26Q510.18 136.44 509.89 136.75Q509.49 137.19 509.32 137.71Q509.2 138.08 509.2 138.48L509.2 185.51Q509.2 185.97 509.35 186.38Q509.52 186.86 509.89 187.26Q510.15 187.54 510.48 187.71ZM627.48 187.71Q628.01 188 628.69 188L640.49 188Q641.17 188 641.7 187.71Q642.03 187.54 642.29 187.26Q642.69 186.84 642.87 186.33Q643 185.94 643 185.51L643 138.48Q643 137.74 642.68 137.19Q642.52 136.92 642.29 136.7Q642.05 136.46 641.76 136.3Q641.21 135.99 640.49 135.99L628.69 135.99Q627.97 135.99 627.42 136.3Q627.13 136.46 626.89 136.7Q626.69 136.9 626.55 137.13Q626.2 137.7 626.2 138.48L626.2 185.51Q626.2 185.97 626.35 186.38Q626.52 186.86 626.89 187.26Q627.15 187.54 627.48 187.71ZM482.2 156.7L465.31 156.7L465.31 156.5Q465.31 153.21 466.28 150.86Q467.12 148.89 468.58 147.66Q468.87 147.42 469.19 147.2Q469.47 147 469.78 146.84Q471.48 145.91 473.71 145.91Q476.09 145.91 477.9 146.93Q478.13 147.06 478.34 147.2Q478.86 147.54 479.3 147.95Q480.55 149.11 481.25 150.86Q482.2 153.21 482.2 156.5L482.2 156.7ZM772.83 174.9Q770.77 176.79 766.99 176.79Q763.64 176.79 761.59 175.15Q761.02 174.69 760.54 174.1Q758.4 171.39 758.2 166Q758.1 164.48 758.1 161.99Q758.1 159.5 758.2 157.99Q758.4 152.69 760.54 149.96Q761.07 149.28 761.72 148.77Q763.74 147.2 766.99 147.2Q770.66 147.2 772.71 149.03Q773.17 149.44 773.56 149.96Q775.61 152.69 775.9 157.99Q776 159.5 776 161.99Q776 164.48 775.9 166Q775.61 171.39 773.56 174.1Q773.22 174.54 772.83 174.9ZM833.48 172.49Q831.51 173.88 828.28 173.88Q824.99 173.88 823.04 172.49Q822.43 172.05 821.93 171.52Q820.84 170.35 820.25 168.71Q819.4 166.29 819.2 163.39Q819.1 161.09 819.2 158.89Q819.4 155.99 820.25 153.6Q820.84 151.96 821.93 150.79Q822.43 150.25 823.04 149.81Q824.99 148.39 828.28 148.39Q831.51 148.39 833.48 149.76Q834.53 150.46 835.28 151.39Q835.98 152.25 836.44 153.3Q837.39 155.5 837.49 158.09Q837.59 159.09 837.59 161.09Q837.59 163.09 837.49 164.19Q837.4 166.35 836.69 168.28Q836.57 168.6 836.44 168.9Q836.02 169.87 835.4 170.68Q834.61 171.71 833.48 172.49ZM679.74 176.64Q677.63 177.6 675.09 177.6Q673.19 177.6 671.53 176.96Q669.91 176.31 668.91 175.13Q668.9 175.12 668.89 175.1Q668.53 174.67 668.3 174.17Q667.89 173.28 667.89 172.2Q667.89 171.65 668.02 171.14Q668.43 169.59 670.04 168.37Q672.19 166.71 676.9 165.9L685.39 164.39L685.39 165.8Q685.39 169.81 684.03 172.47Q682.96 174.55 681.28 175.77Q680.83 176.09 680.34 176.35Q680.05 176.51 679.74 176.64Z" fill="#333333" fill-opacity="1.000000" fill-rule="evenodd"/>
	<path id="Business" d="M497.76 222.17Q498.34 222.5 499.1 222.5L511.08 222.5Q511.55 222.5 511.96 222.35Q512.44 222.18 512.84 221.81Q513.12 221.55 513.3 221.23Q513.6 220.69 513.6 219.98L513.6 211Q513.6 210.61 513.49 210.26Q513.31 209.71 512.84 209.24Q512.38 208.78 511.82 208.6Q511.47 208.48 511.08 208.48L499.1 208.48Q498.45 208.48 497.93 208.75Q497.58 208.93 497.29 209.24Q496.92 209.65 496.75 210.12Q496.61 210.54 496.61 211L496.61 219.98Q496.61 220.8 496.97 221.4Q497.1 221.62 497.29 221.81Q497.51 222.03 497.76 222.17ZM309.28 281.71Q309.81 282 310.49 282L341.89 282Q350.09 282 355.73 279.46Q360.32 277.38 363.13 273.87Q363.79 273.05 364.35 272.16L364.35 272.15Q367.3 267.39 367.3 260.8Q367.3 256.79 365.74 253.52Q365.15 252.3 364.35 251.18Q361.4 247.08 357.59 245.3Q359.3 244.5 361.25 242.71Q363.2 240.91 364.55 238.15Q365.89 235.39 365.89 231.8Q365.89 225.7 363.23 221.25Q362.86 220.63 362.44 220.05Q359.82 216.45 355.1 214.39Q349.6 212 340.99 212L310.49 212Q309.77 212 309.22 212.31Q308.93 212.47 308.69 212.71Q308.49 212.9 308.35 213.14Q308 213.71 308 214.49L308 279.51Q308 279.97 308.15 280.38Q308.32 280.86 308.69 281.26Q308.95 281.54 309.28 281.71ZM338.98 239.78L326 239.78L326 224.99L338.98 224.99Q343.09 224.99 345.14 227.04Q345.82 227.73 346.28 228.54Q347.19 230.16 347.19 232.29Q347.19 234.31 346.37 235.91Q345.89 236.85 345.14 237.64Q345.04 237.74 344.94 237.83Q342.89 239.78 338.98 239.78ZM451.73 281.56Q456.3 283 462.79 283Q470.9 283 476.44 280.95Q482 278.89 484.89 275.21Q486.2 273.53 486.92 271.63Q487.79 269.32 487.79 266.69Q487.79 265.32 487.53 263.99Q487.12 261.86 486.03 259.85Q484.3 256.6 480.2 254.16Q476.1 251.7 469.19 250.6Q463.6 249.5 460.94 248.6Q458.3 247.69 457.44 246.6Q456.87 245.86 456.68 245.03Q456.59 244.63 456.59 244.2Q456.59 243.26 456.96 242.49Q457.33 241.71 458.08 241.1Q459.59 239.91 462.3 239.91Q464.69 239.91 466.28 240.71Q467.89 241.49 469.09 242.49Q470.29 243.49 471.51 244.1Q471.8 244.3 472.19 244.45Q472.6 244.59 473 244.59L483.4 244.59Q483.7 244.59 483.98 244.51Q484.53 244.34 484.98 243.86Q485.37 243.45 485.51 242.96Q485.64 242.56 485.59 242.1Q485.5 240.3 483.98 238.1Q482.49 235.9 479.59 233.8Q476.71 231.7 472.39 230.36Q468.09 228.99 462.4 228.99Q455 228.99 450 231.36Q444.99 233.7 442.38 237.42Q440.28 240.41 439.88 243.62Q439.79 244.36 439.79 245.11Q439.79 249.47 441.77 252.56Q441.83 252.66 441.89 252.75Q443.99 255.9 447.9 257.85Q451.8 259.8 457 261Q462.5 262 465.23 263Q467.99 264 468.89 265.05Q469.1 265.29 469.26 265.56Q469.8 266.46 469.8 267.69Q469.8 268.61 469.43 269.35Q468.96 270.29 467.89 270.94Q465.99 272.08 463.21 272.08Q460.79 272.08 459.08 271.3Q457.4 270.5 456.1 269.45Q454.81 268.4 453.49 267.69Q453.2 267.4 452.95 267.3Q452.71 267.2 452.39 267.2L440.99 267.2Q440.83 267.2 440.68 267.22Q439.95 267.32 439.28 267.91Q438.95 268.2 438.77 268.57Q438.54 269.06 438.6 269.69Q438.69 271.4 440.09 273.65Q441.5 275.89 444.33 277.99Q447.19 280.09 451.73 281.56ZM526.58 281.71Q527.11 282 527.79 282L540.29 282Q540.74 282 541.13 281.85Q541.62 281.67 542.03 281.26Q542.49 280.8 542.67 280.24Q542.78 279.89 542.78 279.51L542.78 252.19Q542.78 247.72 545 245.21Q545.11 245.08 545.23 244.96Q545.9 244.26 546.7 243.75Q548.82 242.4 551.79 242.4Q555.5 242.4 557.68 244.22Q558.08 244.56 558.43 244.96Q560.7 247.5 560.7 252.19L560.7 279.51Q560.7 279.92 560.83 280.29Q561 280.82 561.44 281.26Q561.88 281.7 562.41 281.87Q562.78 282 563.19 282L575.79 282Q576.48 282 577.01 281.71Q577.33 281.54 577.6 281.26Q578 280.84 578.17 280.33Q578.31 279.94 578.31 279.51L578.31 251.6Q578.31 244.2 575.74 239.2Q573.83 235.43 570.83 233.03Q569.84 232.24 568.74 231.6Q568.29 231.35 567.84 231.11Q563.72 228.99 558.51 228.99Q552.79 228.99 548.59 231.09Q544.4 233.19 541.9 236.29L541.9 232.48Q541.9 231.81 541.62 231.29Q541.44 230.97 541.15 230.7Q540.85 230.42 540.5 230.25Q539.96 229.99 539.29 229.99L527.79 229.99Q527.07 229.99 526.52 230.3Q526.23 230.46 525.99 230.7Q525.79 230.9 525.65 231.13Q525.3 231.7 525.3 232.48L525.3 279.51Q525.3 279.97 525.45 280.38Q525.62 280.86 525.99 281.26Q526.25 281.54 526.58 281.71ZM596.42 277.96Q603.12 283 613.6 283Q619.71 283 624.3 281.51Q628.89 279.99 631.94 277.65Q634.99 275.31 636.58 272.91Q638.19 270.5 638.28 268.79Q638.37 268.13 638.11 267.66Q637.98 267.4 637.75 267.2Q637.55 267.02 637.32 266.89Q636.79 266.59 636.09 266.59L623.69 266.59Q622.49 266.59 621.93 266.86Q621.39 267.1 620.49 268.2Q620 268.79 619.1 269.64Q618.19 270.5 616.85 271.16Q615.51 271.79 613.51 271.79Q611.15 271.79 609.44 270.74Q609.18 270.58 608.94 270.4Q608.65 270.18 608.38 269.94Q606.94 268.63 606.13 266.61Q605.2 264.2 605.11 261.29L605.11 260.58L637.09 260.58Q637.85 260.58 638.42 260.26Q638.68 260.11 638.9 259.9Q639.14 259.66 639.3 259.37Q639.6 258.82 639.6 258.09L639.6 255.7Q639.6 247.99 636.7 242.01Q635.33 239.18 633.34 236.92Q631.09 234.36 628.03 232.51Q622.29 228.99 613.51 228.99Q605.79 228.99 600.03 231.95Q597.37 233.32 595.24 235.27Q592.78 237.53 591.04 240.56Q587.8 246.2 587.5 254.09L587.5 257.6Q587.77 269.14 593.65 275.47Q594.19 276.06 594.78 276.6Q595.57 277.32 596.42 277.96ZM659.33 281.56Q663.9 283 670.39 283Q678.5 283 684.04 280.95Q689.6 278.89 692.49 275.21Q693.8 273.53 694.52 271.63Q695.39 269.32 695.39 266.69Q695.39 265.32 695.13 263.99Q694.72 261.86 693.63 259.85Q691.9 256.6 687.8 254.16Q683.7 251.7 676.79 250.6Q671.2 249.5 668.54 248.6Q665.9 247.69 665.04 246.6Q664.47 245.86 664.28 245.03Q664.19 244.63 664.19 244.2Q664.19 243.26 664.56 242.49Q664.93 241.71 665.68 241.1Q667.19 239.91 669.9 239.91Q672.29 239.91 673.88 240.71Q675.49 241.49 676.69 242.49Q677.89 243.49 679.11 244.1Q679.4 244.3 679.79 244.45Q680.2 244.59 680.6 244.59L691 244.59Q691.3 244.59 691.58 244.51Q692.13 244.34 692.58 243.86Q692.97 243.45 693.11 242.96Q693.24 242.56 693.19 242.1Q693.1 240.3 691.58 238.1Q690.09 235.9 687.19 233.8Q684.31 231.7 679.99 230.36Q675.69 228.99 670 228.99Q662.6 228.99 657.6 231.36Q652.59 233.7 649.98 237.42Q647.88 240.41 647.48 243.62Q647.39 244.36 647.39 245.11Q647.39 249.47 649.37 252.56Q649.43 252.66 649.49 252.75Q651.59 255.9 655.5 257.85Q659.4 259.8 664.6 261Q670.1 262 672.83 263Q675.59 264 676.49 265.05Q676.7 265.29 676.86 265.56Q677.4 266.46 677.4 267.69Q677.4 268.61 677.03 269.35Q676.56 270.29 675.49 270.94Q673.59 272.08 670.81 272.08Q668.39 272.08 666.68 271.3Q665 270.5 663.7 269.45Q662.41 268.4 661.09 267.69Q660.8 267.4 660.55 267.3Q660.31 267.2 659.99 267.2L648.59 267.2Q648.43 267.2 648.28 267.22Q647.55 267.32 646.88 267.91Q646.55 268.2 646.37 268.57Q646.14 269.06 646.2 269.69Q646.29 271.4 647.69 273.65Q649.1 275.89 651.93 277.99Q654.79 280.09 659.33 281.56ZM714.63 281.56Q719.2 283 725.69 283Q733.8 283 739.34 280.95Q744.9 278.89 747.79 275.21Q749.1 273.53 749.82 271.63Q750.69 269.32 750.69 266.69Q750.69 265.32 750.43 263.99Q750.02 261.86 748.93 259.85Q747.2 256.6 743.1 254.16Q739 251.7 732.09 250.6Q726.5 249.5 723.84 248.6Q721.2 247.69 720.34 246.6Q719.77 245.86 719.58 245.03Q719.49 244.63 719.49 244.2Q719.49 243.26 719.86 242.49Q720.23 241.71 720.98 241.1Q722.49 239.91 725.2 239.91Q727.59 239.91 729.18 240.71Q730.79 241.49 731.99 242.49Q733.19 243.49 734.41 244.1Q734.7 244.3 735.09 244.45Q735.51 244.59 735.9 244.59L746.3 244.59Q746.6 244.59 746.88 244.51Q747.43 244.34 747.88 243.86Q748.27 243.45 748.41 242.96Q748.54 242.56 748.49 242.1Q748.4 240.3 746.88 238.1Q745.39 235.9 742.49 233.8Q739.61 231.7 735.29 230.36Q730.99 228.99 725.3 228.99Q717.9 228.99 712.9 231.36Q707.89 233.7 705.28 237.42Q703.18 240.41 702.78 243.62Q702.69 244.36 702.69 245.11Q702.69 249.47 704.67 252.56Q704.73 252.66 704.79 252.75Q706.89 255.9 710.8 257.85Q714.7 259.8 719.9 261Q725.4 262 728.13 263Q730.89 264 731.79 265.05Q732 265.29 732.16 265.56Q732.7 266.46 732.7 267.69Q732.7 268.61 732.33 269.35Q731.86 270.29 730.79 270.94Q728.89 272.08 726.11 272.08Q723.69 272.08 721.98 271.3Q720.3 270.5 719 269.45Q717.71 268.4 716.39 267.69Q716.1 267.4 715.85 267.3Q715.61 267.2 715.29 267.2L703.89 267.2Q703.73 267.2 703.58 267.22Q702.85 267.32 702.18 267.91Q701.85 268.2 701.67 268.57Q701.44 269.06 701.5 269.69Q701.59 271.4 702.99 273.65Q704.4 275.89 707.23 277.99Q710.09 280.09 714.63 281.56ZM387.62 281.13Q391.57 283 396.4 283Q402.08 283 406.23 281.14Q408.68 280.05 410.6 278.35Q411.93 277.17 413 275.7L413 279.51Q413 279.92 413.12 280.29Q413.3 280.82 413.73 281.26Q414.18 281.7 414.71 281.87Q415.08 282 415.49 282L427.08 282Q427.84 282 428.4 281.66Q428.67 281.5 428.89 281.26Q429.29 280.84 429.46 280.33Q429.6 279.94 429.6 279.51L429.6 232.48Q429.6 231.74 429.27 231.19Q429.12 230.92 428.89 230.7Q428.69 230.5 428.46 230.35Q427.88 229.99 427.08 229.99L414.58 229.99Q413.86 229.99 413.31 230.3Q413.02 230.46 412.78 230.7Q412.58 230.9 412.44 231.13Q412.09 231.7 412.09 232.48L412.09 259.8Q412.09 264.21 409.92 266.74Q409.78 266.9 409.63 267.05Q408.99 267.71 408.25 268.2Q406.12 269.59 403.09 269.59Q399.25 269.59 397.11 267.69Q394.39 265.28 394.39 259.8L394.39 232.48Q394.39 231.81 394.11 231.29Q393.93 230.97 393.64 230.7Q393.37 230.44 393.05 230.28Q392.5 229.99 391.81 229.99L379.31 229.99Q378.58 229.99 378.03 230.3Q377.74 230.46 377.5 230.7Q377.27 230.92 377.12 231.19Q376.79 231.74 376.79 232.48L376.79 260.39Q376.79 267.69 379.28 272.74Q381.23 276.65 384.33 279.1Q385.23 279.82 386.24 280.41Q386.92 280.8 387.62 281.13ZM497.98 281.71Q498.51 282 499.19 282L510.99 282Q511.67 282 512.2 281.71Q512.53 281.54 512.79 281.26Q513.19 280.84 513.37 280.33Q513.5 279.94 513.5 279.51L513.5 232.48Q513.5 231.74 513.18 231.19Q513.02 230.92 512.79 230.7Q512.55 230.46 512.26 230.3Q511.71 229.99 510.99 229.99L499.19 229.99Q498.47 229.99 497.92 230.3Q497.63 230.46 497.39 230.7Q497.19 230.9 497.05 231.13Q496.7 231.7 496.7 232.48L496.7 279.51Q496.7 279.97 496.85 280.38Q497.02 280.86 497.39 281.26Q497.65 281.54 497.98 281.71ZM622 250.7L605.11 250.7L605.11 250.5Q605.11 247.21 606.08 244.86Q606.92 242.89 608.38 241.66Q608.67 241.42 608.99 241.2Q609.27 241.01 609.58 240.84Q611.28 239.91 613.51 239.91Q615.89 239.91 617.7 240.93Q617.93 241.06 618.14 241.2Q618.65 241.54 619.1 241.95Q620.35 243.11 621.05 244.86Q622 247.21 622 250.5L622 250.7ZM339.89 269.01L326 269.01L326 252.5L339.89 252.5Q343.5 252.5 345.66 254.27Q346.02 254.56 346.33 254.9Q347.21 255.82 347.74 256.9Q348.6 258.64 348.6 260.8Q348.6 262.1 348.24 263.28Q347.7 265.02 346.38 266.52Q346.05 266.89 345.68 267.21Q343.54 269.01 339.89 269.01Z" fill="#333333" fill-opacity="1.000000" fill-rule="evenodd"/>
</svg>
